<?xml version="1.0" standalone="no"?>
<!DOCTYPE svg PUBLIC "-//W3C//DTD SVG 20010904//EN"
 "http://www.w3.org/TR/2001/REC-SVG-20010904/DTD/svg10.dtd">
<svg version="1.0" xmlns="http://www.w3.org/2000/svg"
 width="3011.000000pt" height="3011.000000pt" viewBox="0 0 3011.000000 3011.000000"
 preserveAspectRatio="xMidYMid meet">
<metadata>
Created by potrace 1.14, written by Peter Selinger 2001-2017
</metadata>
<g transform="translate(0.000000,3011.000000) scale(0.100000,-0.100000)"
fill="#000000" stroke="none">
<path d="M6115 30100 c-4 -6 -55 -10 -121 -10 -63 0 -114 -4 -114 -8 0 -5 -66
-12 -147 -16 -81 -4 -150 -11 -153 -15 -3 -4 -50 -11 -105 -15 -55 -4 -101
-11 -103 -16 -2 -6 -24 -10 -48 -10 -24 0 -44 -4 -44 -9 0 -5 -40 -12 -90 -15
-49 -4 -90 -11 -90 -16 0 -4 -27 -11 -60 -15 -33 -4 -60 -10 -60 -15 0 -4 -31
-11 -70 -14 -38 -4 -72 -11 -75 -17 -4 -5 -15 -9 -26 -9 -10 0 -19 -4 -19 -9
0 -4 -23 -11 -52 -14 -28 -4 -54 -10 -57 -15 -3 -5 -28 -12 -55 -15 -27 -4
-54 -11 -60 -16 -6 -5 -28 -12 -49 -16 -20 -4 -40 -11 -43 -16 -3 -5 -16 -9
-30 -9 -13 0 -24 -4 -24 -9 0 -5 -20 -12 -45 -15 -25 -4 -45 -11 -45 -15 0 -5
-18 -11 -40 -15 -38 -6 -78 -23 -90 -37 -3 -3 -22 -9 -42 -13 -21 -4 -38 -11
-38 -15 0 -5 -18 -11 -40 -15 -22 -3 -40 -11 -40 -16 0 -6 -7 -10 -15 -10 -21
0 -95 -33 -95 -42 0 -4 -18 -11 -40 -14 -22 -4 -40 -10 -40 -14 0 -5 -14 -11
-30 -15 -17 -4 -30 -11 -30 -16 0 -5 -7 -9 -15 -9 -8 0 -15 -4 -15 -10 0 -5
-6 -10 -12 -10 -7 -1 -31 -9 -53 -20 -22 -11 -46 -19 -52 -20 -7 0 -13 -4 -13
-9 0 -5 -13 -12 -30 -16 -16 -4 -30 -11 -30 -16 0 -5 -7 -9 -15 -9 -8 0 -15
-4 -15 -10 0 -5 -16 -12 -35 -16 -19 -3 -35 -10 -35 -15 0 -5 -7 -9 -15 -9 -9
0 -18 -7 -21 -15 -4 -8 -12 -15 -19 -15 -16 0 -79 -32 -83 -43 -4 -8 -86 -47
-100 -47 -6 0 -12 -7 -16 -15 -3 -8 -17 -20 -31 -25 -14 -5 -25 -14 -25 -19 0
-5 -12 -12 -26 -15 -23 -6 -89 -49 -104 -67 -3 -4 -15 -9 -27 -13 -13 -4 -23
-12 -23 -17 0 -5 -7 -9 -15 -9 -9 0 -18 -7 -21 -15 -4 -8 -13 -15 -21 -15 -7
0 -24 -11 -37 -25 -13 -14 -29 -25 -35 -25 -6 0 -14 -7 -17 -15 -4 -8 -14 -15
-24 -15 -9 0 -26 -11 -36 -25 -10 -14 -24 -25 -30 -25 -6 0 -19 -9 -29 -20
-10 -11 -23 -20 -29 -20 -6 0 -20 -11 -30 -25 -10 -14 -26 -25 -35 -25 -9 -1
-27 -14 -41 -30 -13 -17 -29 -30 -35 -30 -5 0 -27 -18 -48 -40 -20 -22 -42
-40 -47 -40 -6 0 -32 -22 -59 -50 -27 -27 -52 -50 -57 -50 -5 0 -53 -45 -107
-100 -55 -55 -103 -100 -108 -100 -12 0 -119 -106 -119 -119 0 -5 -45 -54
-100 -108 -55 -54 -100 -102 -100 -106 0 -5 -22 -31 -50 -58 -27 -27 -50 -53
-50 -58 0 -5 -18 -28 -40 -50 -22 -22 -40 -45 -40 -51 0 -6 -7 -13 -15 -16 -8
-3 -17 -15 -21 -27 -4 -11 -21 -35 -39 -51 -18 -17 -35 -41 -39 -53 -4 -11
-13 -24 -21 -27 -8 -3 -15 -11 -15 -18 0 -7 -11 -22 -25 -32 -14 -10 -25 -27
-25 -36 0 -10 -7 -20 -15 -24 -8 -3 -15 -12 -15 -21 0 -8 -4 -15 -8 -15 -4 0
-16 -15 -27 -32 -10 -18 -24 -37 -32 -41 -7 -4 -13 -15 -13 -22 0 -8 -4 -15
-10 -15 -5 0 -12 -11 -16 -25 -3 -14 -10 -25 -14 -25 -4 0 -10 -8 -14 -17 -6
-21 -25 -51 -43 -71 -7 -7 -13 -19 -13 -25 0 -7 -9 -18 -19 -24 -11 -7 -22
-26 -26 -43 -4 -16 -11 -30 -16 -30 -8 0 -49 -80 -49 -97 0 -5 -9 -14 -19 -20
-11 -7 -22 -26 -26 -43 -4 -16 -11 -30 -16 -30 -5 0 -9 -7 -9 -15 0 -9 -6 -18
-14 -21 -8 -3 -17 -21 -20 -40 -4 -19 -11 -34 -16 -34 -6 0 -10 -7 -10 -15 0
-8 -4 -15 -9 -15 -5 0 -12 -13 -16 -30 -4 -16 -11 -30 -15 -30 -5 0 -12 -16
-16 -35 -3 -19 -10 -35 -15 -35 -5 0 -9 -7 -9 -15 0 -8 -4 -15 -10 -15 -5 0
-13 -18 -16 -40 -4 -22 -10 -40 -14 -40 -5 0 -11 -13 -15 -30 -4 -16 -10 -30
-15 -30 -5 0 -11 -13 -15 -30 -4 -16 -11 -30 -16 -30 -5 0 -9 -11 -9 -25 0
-14 -4 -25 -9 -25 -5 0 -12 -13 -16 -30 -4 -16 -10 -30 -15 -30 -4 0 -11 -22
-15 -50 -4 -27 -10 -50 -13 -50 -8 0 -28 -44 -38 -82 -3 -16 -10 -28 -14 -28
-4 0 -11 -20 -14 -45 -4 -25 -11 -45 -16 -45 -4 0 -11 -22 -15 -50 -4 -27 -11
-50 -16 -50 -5 0 -9 -11 -9 -25 0 -14 -4 -25 -9 -25 -6 0 -13 -20 -17 -45 -3
-25 -10 -45 -14 -45 -5 0 -12 -25 -15 -55 -4 -30 -11 -55 -16 -55 -5 0 -9 -11
-9 -24 0 -14 -4 -27 -10 -31 -5 -3 -12 -32 -16 -65 -4 -33 -10 -60 -14 -60 -5
0 -11 -27 -15 -60 -4 -33 -10 -60 -15 -60 -4 0 -11 -31 -14 -70 -4 -38 -11
-70 -17 -70 -5 0 -9 -18 -9 -39 0 -22 -4 -42 -9 -45 -5 -3 -12 -46 -16 -96 -4
-49 -11 -90 -15 -90 -4 0 -11 -48 -15 -107 -4 -60 -11 -113 -16 -119 -5 -6
-12 -86 -16 -178 -3 -91 -10 -166 -15 -166 -4 0 -8 -5490 -8 -12200 l0 -12200
10249 0 c5638 0 10252 4 10255 8 3 5 117 12 253 16 142 4 249 11 251 16 2 6
41 10 87 10 46 0 86 4 89 9 3 5 62 12 131 16 69 4 125 11 125 15 0 4 50 11
110 15 61 3 110 10 110 15 0 4 41 11 90 15 50 4 93 11 96 16 3 5 23 9 45 9 21
0 39 4 39 9 0 5 38 12 85 16 47 4 85 10 85 15 0 4 32 11 70 15 39 4 70 11 70
16 0 5 16 9 35 9 19 0 35 4 35 9 0 6 32 13 70 17 39 3 70 10 70 14 0 5 27 11
60 15 33 4 62 11 65 15 3 5 24 11 48 15 23 3 52 10 65 16 12 5 32 13 45 18 12
5 40 13 62 16 22 4 45 10 50 15 6 4 31 11 57 14 26 4 50 11 53 17 4 5 15 9 26
9 10 0 19 4 19 9 0 5 23 12 50 16 28 4 50 10 50 15 0 4 20 11 45 14 25 4 45
11 45 15 0 5 20 12 45 15 24 4 47 11 50 17 4 5 17 9 31 9 13 0 24 4 24 9 0 6
20 13 45 17 25 3 45 10 45 15 0 5 18 12 40 15 22 4 40 10 40 14 0 4 12 11 28
14 37 10 82 30 82 37 0 4 18 9 40 13 22 3 40 11 40 16 0 6 10 10 23 10 13 0
32 7 43 15 10 8 29 15 42 15 12 0 22 4 22 9 0 5 14 12 30 16 17 4 30 10 30 15
0 4 18 10 40 14 22 3 40 10 40 14 0 4 20 16 45 27 25 11 45 22 45 26 0 4 18 9
40 13 22 3 40 10 40 15 0 5 13 12 30 16 16 4 32 11 35 16 4 5 15 9 26 9 10 0
19 4 19 10 0 5 11 12 25 16 14 3 25 10 25 14 0 5 14 11 30 15 17 4 30 11 30
16 0 5 4 9 10 9 16 0 90 34 90 42 0 3 14 9 30 13 17 4 30 10 30 15 0 5 14 11
30 15 17 4 30 11 30 16 0 5 9 9 20 9 11 0 20 4 20 9 0 5 14 12 30 16 17 4 30
11 30 16 0 5 11 11 25 15 14 3 25 10 25 14 0 4 12 11 27 15 15 3 34 14 42 24
9 10 27 22 41 26 14 4 27 10 30 14 7 8 37 26 90 52 25 13 51 29 58 36 7 7 20
13 28 13 8 0 14 4 14 10 0 5 17 17 37 27 21 9 41 21 44 26 7 10 46 34 72 43 9
3 17 9 17 13 0 4 16 15 35 25 19 11 35 22 35 26 0 5 12 11 26 14 26 7 38 15
80 53 14 13 29 23 33 23 4 0 18 9 31 20 13 11 29 20 35 20 7 0 15 7 19 15 3 8
11 15 19 15 7 0 23 11 35 25 12 14 28 25 36 25 8 0 16 7 20 15 3 8 10 15 16
15 13 0 82 50 93 67 4 7 14 13 21 13 7 0 23 11 36 25 13 14 28 25 33 25 4 0
22 14 39 30 16 17 33 30 38 30 5 0 24 15 42 33 18 19 41 37 51 40 9 4 17 11
17 16 0 5 10 13 22 17 12 3 36 22 54 40 17 19 36 34 41 34 5 0 29 20 52 45 23
25 47 45 53 45 6 0 32 22 58 50 26 27 52 50 57 50 6 0 34 25 64 55 30 30 58
55 63 55 16 0 626 618 626 634 0 9 4 16 10 16 10 0 110 101 110 112 0 3 20 27
45 52 25 26 45 50 45 54 0 4 25 34 55 67 91 99 105 115 105 125 0 6 14 22 30
37 16 14 30 31 30 36 0 5 11 20 25 33 14 13 25 29 25 37 0 8 13 24 30 37 17
13 30 28 30 34 0 6 11 23 25 38 14 15 25 30 25 33 0 3 11 16 24 28 13 12 26
32 30 45 4 12 12 22 17 22 5 0 9 6 9 14 0 7 11 22 25 32 14 10 25 24 25 31 0
6 6 18 13 25 14 16 34 47 44 68 4 8 16 24 27 35 24 23 41 49 56 82 5 13 13 23
17 23 8 0 26 29 39 62 3 10 10 18 15 18 5 0 9 6 9 14 0 8 6 21 13 28 17 20 37
50 43 70 3 9 12 19 20 22 8 3 14 15 14 26 0 11 5 20 10 20 6 0 10 7 10 15 0 7
6 18 13 22 14 9 35 41 43 66 4 9 10 17 14 17 5 0 11 14 15 31 4 17 15 39 26
50 10 10 27 39 39 64 11 25 25 45 30 45 6 0 10 4 10 10 0 17 34 90 42 90 8 0
48 83 48 99 0 6 4 11 9 11 5 0 12 12 16 27 3 15 10 30 13 33 13 10 42 68 42
84 0 9 4 16 9 16 5 0 12 13 16 30 4 16 10 30 13 30 4 0 16 18 26 40 11 22 23
40 27 40 5 0 12 18 15 40 4 22 10 40 14 40 4 0 11 12 15 27 3 15 10 30 13 33
15 11 42 69 42 89 0 12 4 21 9 21 5 0 12 13 16 30 4 16 11 30 16 30 5 0 9 7 9
15 0 8 4 23 10 33 20 37 50 112 50 126 0 9 4 16 9 16 5 0 12 18 16 40 4 22 10
40 13 40 8 0 32 49 32 64 0 6 6 23 14 38 8 15 17 40 21 57 4 17 10 31 15 31 4
0 10 18 14 40 3 22 11 40 16 40 6 0 10 11 10 25 0 14 4 25 9 25 5 0 12 20 15
45 4 24 11 47 16 50 5 3 12 26 16 50 3 25 10 45 15 45 5 0 9 11 9 25 0 14 4
25 9 25 6 0 13 20 17 45 3 25 10 45 14 45 4 0 11 21 15 48 4 26 11 50 16 53 5
3 12 29 16 57 3 29 10 52 14 52 5 0 9 9 9 19 0 11 4 22 9 25 4 3 11 28 15 55
4 28 10 53 15 55 5 3 12 31 16 61 3 30 11 55 16 55 5 0 9 13 9 28 0 15 4 32
10 38 5 5 13 38 16 72 4 34 10 62 15 62 4 0 11 29 14 65 4 36 11 65 15 65 4 0
11 32 14 70 4 39 11 70 17 70 5 0 9 18 9 40 0 22 4 40 9 40 5 0 12 38 16 85 4
47 10 85 15 85 4 0 11 43 15 95 4 52 11 95 16 95 5 0 9 22 9 49 0 28 4 52 9
55 5 3 12 59 16 123 4 65 11 120 15 123 5 3 12 70 16 150 4 80 10 147 15 150
4 3 11 114 15 248 4 133 11 242 15 242 5 0 9 160 9 355 0 195 -4 355 -9 355
-4 0 -12 114 -16 253 -4 138 -10 254 -15 257 -4 3 -11 55 -15 115 -4 61 -10
112 -14 115 -4 3 -13 61 -20 130 -6 69 -14 151 -17 183 -3 31 -9 57 -14 57 -4
0 -11 50 -15 110 -3 61 -11 110 -15 110 -5 0 -12 32 -16 70 -3 39 -11 70 -15
70 -5 0 -9 14 -9 30 0 17 -4 30 -9 30 -5 0 -12 36 -16 80 -4 44 -11 80 -15 80
-4 0 -11 32 -15 70 -4 39 -11 72 -15 75 -5 3 -12 34 -15 70 -4 36 -11 68 -16
71 -5 3 -9 18 -9 35 0 16 -4 29 -9 29 -5 0 -12 25 -16 55 -3 30 -10 55 -15 55
-5 0 -12 25 -15 55 -4 30 -11 55 -16 55 -5 0 -9 11 -9 25 0 14 -4 25 -9 25 -5
0 -12 20 -15 45 -4 25 -11 45 -16 45 -5 0 -12 25 -15 55 -4 30 -11 55 -15 55
-4 0 -11 20 -14 45 -4 24 -11 47 -17 50 -5 4 -9 17 -9 30 0 13 -5 25 -10 27
-6 2 -13 27 -17 56 -3 28 -10 52 -14 52 -5 0 -9 8 -9 18 0 9 -7 30 -15 46 -8
15 -15 35 -15 42 0 8 -4 14 -9 14 -5 0 -12 18 -16 40 -4 22 -11 40 -16 40 -5
0 -12 18 -15 40 -4 22 -10 40 -15 40 -5 0 -12 18 -15 40 -4 22 -10 40 -15 40
-5 0 -9 7 -9 15 0 8 -4 15 -9 15 -5 0 -11 18 -15 40 -3 22 -11 40 -16 40 -5 0
-13 18 -16 40 -4 22 -10 40 -14 40 -4 0 -11 12 -14 27 -10 38 -30 83 -37 83
-4 0 -9 18 -13 40 -3 22 -10 40 -15 40 -5 0 -11 18 -15 40 -3 22 -11 40 -16
40 -6 0 -10 7 -10 15 0 8 -4 15 -10 15 -5 0 -12 11 -16 25 -3 14 -10 25 -14
25 -5 0 -11 13 -15 30 -4 16 -11 30 -16 30 -5 0 -9 4 -9 10 0 16 -34 90 -42
90 -3 0 -9 14 -13 30 -4 17 -10 30 -15 30 -5 0 -11 14 -15 30 -4 16 -10 30
-13 30 -8 0 -42 74 -42 90 0 6 -4 10 -9 10 -5 0 -12 14 -16 30 -4 17 -10 30
-15 30 -5 0 -11 14 -15 30 -4 16 -11 30 -16 30 -5 0 -9 9 -9 20 0 11 -4 20 -9
20 -5 0 -12 12 -16 27 -3 15 -10 30 -13 33 -17 12 -72 100 -72 113 0 8 -7 17
-15 21 -8 3 -15 12 -15 21 0 8 -4 15 -10 15 -5 0 -12 11 -16 25 -3 14 -10 25
-15 25 -5 0 -9 7 -9 15 0 8 -4 15 -10 15 -5 0 -12 11 -16 25 -3 14 -10 25 -14
25 -5 0 -12 10 -16 23 -4 12 -9 24 -13 27 -10 8 -31 44 -37 63 -4 9 -10 17
-15 17 -5 0 -9 7 -9 15 0 9 -7 18 -15 21 -8 4 -15 15 -15 25 0 11 -7 22 -15
25 -8 4 -15 12 -15 20 0 8 -4 14 -10 14 -5 0 -10 6 -10 14 0 8 -6 21 -14 28
-7 8 -17 24 -20 36 -4 12 -12 22 -17 22 -5 0 -9 6 -9 14 0 8 -11 23 -24 33
-13 10 -26 29 -30 41 -4 12 -12 22 -17 22 -5 0 -9 6 -9 14 0 8 -11 23 -24 33
-13 10 -26 29 -30 41 -4 12 -12 22 -17 22 -5 0 -9 6 -9 13 0 8 -9 22 -20 32
-11 10 -20 23 -20 29 0 7 -9 18 -20 26 -11 8 -20 20 -20 27 0 7 -9 21 -20 30
-11 10 -20 22 -20 28 0 6 -11 21 -25 33 -14 12 -25 26 -25 32 0 9 -25 39 -92
111 -21 22 -38 46 -38 53 0 7 -13 23 -30 36 -16 13 -30 28 -30 35 0 6 -25 35
-55 64 -30 29 -55 57 -55 63 0 5 -29 39 -65 74 -36 35 -65 68 -65 73 0 5 -27
36 -60 69 -33 33 -60 63 -60 67 0 10 -186 195 -196 195 -3 0 -97 90 -207 200
-111 110 -204 200 -208 200 -4 0 -28 20 -52 45 -25 25 -49 45 -54 45 -4 0 -26
18 -48 40 -22 21 -44 39 -48 40 -5 0 -28 20 -53 45 -24 25 -48 45 -54 45 -5 0
-27 18 -47 40 -21 22 -42 40 -47 40 -4 0 -26 18 -48 40 -22 22 -45 40 -50 40
-5 0 -19 11 -32 25 -13 14 -27 25 -31 25 -4 0 -22 12 -40 28 -56 46 -79 62
-91 62 -7 0 -14 7 -18 15 -3 8 -17 20 -31 25 -14 5 -25 14 -25 19 0 5 -10 13
-22 16 -11 4 -31 18 -43 31 -12 13 -26 24 -30 24 -4 0 -24 14 -44 30 -20 17
-41 34 -47 38 -36 25 -51 33 -66 38 -9 3 -19 13 -22 21 -7 18 3 63 14 63 4 0
10 18 14 40 3 22 10 40 15 40 5 0 11 18 15 40 3 22 11 40 16 40 6 0 10 11 10
25 0 14 4 25 10 25 5 0 13 18 16 40 4 22 10 40 15 40 4 0 11 20 15 45 3 25 10
45 15 45 5 0 9 11 9 24 0 14 4 27 9 30 5 4 12 24 16 46 4 22 11 42 15 45 5 3
12 26 16 50 3 25 10 45 14 45 4 0 11 20 14 45 4 25 11 45 17 45 5 0 9 15 9 34
0 19 5 36 10 38 6 2 13 27 17 56 3 28 9 52 14 52 4 0 11 25 14 55 4 30 11 55
16 55 5 0 9 11 9 24 0 14 4 27 9 31 5 3 13 30 16 60 4 30 11 55 15 55 4 0 11
32 15 70 4 39 11 72 15 75 4 3 11 32 15 65 4 33 11 60 16 60 5 0 9 17 9 38 0
21 5 43 10 48 6 6 14 43 17 82 3 40 9 72 13 72 4 0 11 38 15 85 4 47 10 85 15
85 4 0 11 41 14 90 4 50 12 90 17 90 5 0 9 27 9 59 0 33 4 62 9 65 5 3 12 61
16 128 4 68 11 125 16 128 4 3 11 81 15 173 4 92 11 167 16 167 4 0 8 47 8
104 0 59 4 108 10 111 14 8 14 1012 0 1020 -6 3 -10 50 -10 106 0 54 -4 99 -8
99 -5 0 -12 77 -16 172 -4 95 -11 175 -15 178 -5 3 -12 60 -16 128 -4 67 -11
122 -16 122 -5 0 -9 29 -9 65 0 36 -4 65 -9 65 -5 0 -12 38 -16 85 -4 47 -11
85 -15 85 -4 0 -10 36 -14 81 -4 44 -11 88 -16 97 -5 9 -12 47 -15 85 -4 37
-11 67 -16 67 -5 0 -9 18 -9 40 0 22 -4 40 -9 40 -5 0 -12 29 -16 65 -3 36
-10 65 -15 65 -4 0 -11 32 -14 70 -4 39 -11 70 -16 70 -4 0 -11 27 -15 60 -4
33 -11 63 -16 66 -5 3 -9 16 -9 30 0 13 -4 24 -9 24 -5 0 -12 25 -16 55 -3 30
-10 55 -14 55 -5 0 -11 22 -15 50 -4 27 -11 52 -16 55 -6 3 -10 19 -10 36 0
16 -4 29 -9 29 -5 0 -12 20 -15 45 -4 24 -11 47 -16 50 -5 3 -12 26 -16 50 -3
25 -10 45 -14 45 -4 0 -11 20 -14 45 -4 24 -11 47 -17 50 -5 4 -9 15 -9 26 0
10 -4 19 -9 19 -5 0 -12 23 -16 50 -4 28 -11 50 -15 50 -5 0 -12 20 -16 45 -3
25 -10 45 -15 45 -5 0 -9 7 -9 15 0 8 -4 15 -9 15 -5 0 -11 18 -15 40 -3 22
-10 40 -15 40 -5 0 -11 18 -15 40 -3 22 -10 40 -15 40 -5 0 -11 18 -15 40 -3
22 -11 40 -16 40 -6 0 -10 11 -10 25 0 14 -4 25 -10 25 -5 0 -13 18 -16 40 -4
22 -10 40 -14 40 -5 0 -11 14 -15 30 -4 17 -10 30 -15 30 -4 0 -11 12 -14 28
-10 38 -30 82 -38 82 -3 0 -9 14 -13 30 -4 17 -10 30 -15 30 -4 0 -11 18 -15
40 -4 22 -10 40 -14 40 -7 0 -41 74 -41 90 0 6 -4 10 -9 10 -5 0 -12 14 -16
30 -4 17 -11 30 -16 30 -5 0 -9 4 -9 10 0 16 -34 90 -42 90 -3 0 -9 14 -13 30
-4 17 -10 30 -15 30 -5 0 -11 14 -15 30 -4 17 -10 30 -13 30 -8 0 -42 74 -42
90 0 6 -3 10 -8 10 -7 0 -16 15 -46 78 -8 18 -22 35 -30 38 -8 3 -17 21 -20
40 -4 19 -11 34 -15 34 -5 0 -11 8 -15 18 -6 19 -28 54 -38 62 -3 3 -10 18
-13 33 -4 15 -11 27 -15 27 -5 0 -12 10 -16 23 -4 12 -9 24 -13 27 -10 8 -31
44 -37 63 -4 9 -10 17 -15 17 -5 0 -9 7 -9 15 0 9 -7 18 -15 21 -8 4 -15 14
-15 25 0 10 -6 22 -12 26 -13 8 -32 35 -45 63 -4 8 -13 21 -20 28 -7 7 -13 20
-13 28 0 8 -4 14 -9 14 -5 0 -11 8 -15 18 -8 24 -29 56 -43 65 -7 4 -13 15
-13 22 0 8 -4 15 -9 15 -5 0 -13 10 -17 23 -4 12 -16 31 -28 43 -22 21 -42 49
-53 74 -3 8 -17 25 -30 37 -13 12 -23 29 -23 36 0 8 -7 17 -15 21 -8 3 -15 11
-15 17 0 6 -11 22 -25 35 -14 13 -25 29 -25 37 0 8 -11 23 -25 33 -14 10 -25
24 -25 30 0 6 -9 19 -20 29 -11 10 -20 22 -20 27 0 5 -16 24 -35 42 -19 19
-35 38 -35 45 0 6 -13 23 -30 38 -16 14 -30 31 -30 36 0 5 -11 20 -25 33 -14
13 -25 28 -25 33 0 6 -18 28 -40 50 -22 22 -40 44 -40 49 0 5 -25 32 -55 60
-30 28 -55 57 -55 65 0 7 -20 30 -45 52 -25 22 -45 45 -45 51 0 6 -17 27 -37
46 -21 19 -50 48 -64 64 -14 16 -39 41 -55 55 -16 14 -45 45 -64 68 -49 60
-217 231 -226 231 -8 0 -79 66 -123 114 -14 16 -39 41 -55 55 -16 14 -41 38
-54 54 -14 15 -30 27 -35 27 -5 0 -33 25 -62 55 -28 30 -57 55 -64 55 -6 0
-33 23 -58 50 -25 28 -51 50 -56 50 -6 0 -28 18 -48 40 -21 22 -42 40 -47 40
-6 0 -24 14 -40 30 -17 17 -35 30 -40 30 -5 0 -21 14 -35 30 -15 17 -32 30
-38 30 -7 0 -22 11 -35 25 -13 14 -27 25 -32 25 -4 0 -21 14 -37 30 -16 17
-34 30 -39 30 -6 0 -20 11 -30 25 -10 14 -27 25 -37 25 -11 0 -19 5 -19 10 0
6 -8 14 -17 17 -10 4 -28 17 -40 30 -12 13 -29 23 -38 23 -8 0 -15 5 -15 10 0
6 -8 14 -17 17 -10 4 -29 17 -43 30 -14 13 -30 23 -36 23 -7 0 -14 7 -18 15
-3 8 -11 15 -18 15 -7 0 -25 11 -39 24 -14 13 -36 27 -50 31 -13 4 -30 16 -37
26 -7 11 -20 19 -28 19 -8 0 -17 7 -20 15 -4 8 -12 15 -19 15 -8 0 -20 6 -27
13 -20 18 -50 37 -70 43 -10 4 -18 10 -18 14 0 4 -11 11 -25 14 -14 4 -25 11
-25 16 0 6 -7 10 -15 10 -9 0 -18 7 -21 15 -4 8 -14 15 -24 15 -10 0 -20 7
-24 15 -3 8 -12 15 -21 15 -8 0 -15 4 -15 10 0 5 -15 12 -34 16 -19 3 -37 12
-40 20 -3 8 -12 14 -21 14 -8 0 -15 3 -15 8 0 4 -18 15 -40 25 -22 9 -40 21
-40 27 0 5 -16 12 -35 16 -19 3 -35 10 -35 15 0 5 -7 9 -15 9 -8 0 -15 4 -15
10 0 10 -80 50 -99 50 -6 0 -11 4 -11 9 0 5 -12 12 -27 16 -15 3 -30 10 -33
13 -9 13 -68 42 -83 42 -8 0 -17 7 -21 15 -3 8 -12 15 -21 15 -8 0 -15 3 -15
8 0 8 -73 42 -90 42 -6 0 -10 4 -10 9 0 5 -13 12 -30 16 -16 4 -30 11 -30 15
0 5 -17 12 -37 16 -21 4 -40 10 -43 13 -10 12 -69 41 -84 41 -9 0 -16 4 -16 9
0 5 -14 12 -31 16 -17 4 -42 13 -57 21 -15 8 -33 14 -39 14 -7 0 -13 5 -13 10
0 6 -7 10 -15 10 -8 0 -15 4 -15 9 0 5 -18 11 -40 15 -22 3 -40 11 -40 16 0 5
-18 13 -40 16 -22 4 -40 9 -40 13 0 7 -45 27 -82 37 -16 3 -28 10 -28 14 0 4
-20 11 -45 14 -25 4 -45 11 -45 16 0 5 -17 12 -37 16 -21 4 -40 10 -43 13 -12
14 -52 31 -90 37 -22 4 -40 10 -40 14 0 4 -20 11 -45 14 -25 4 -45 11 -45 17
0 5 -11 9 -24 9 -14 0 -27 4 -31 9 -3 6 -26 13 -50 17 -25 3 -45 10 -45 15 0
4 -20 11 -45 15 -25 3 -45 10 -45 14 0 5 -22 11 -50 15 -27 4 -50 11 -50 16 0
5 -13 9 -30 9 -16 0 -30 4 -30 9 0 5 -25 13 -55 16 -30 4 -55 11 -55 15 0 5
-25 12 -55 15 -30 4 -55 11 -55 16 0 5 -11 9 -24 9 -14 0 -27 4 -31 9 -3 5
-30 13 -60 16 -31 4 -57 11 -60 15 -3 4 -36 11 -75 15 -38 4 -70 11 -70 15 0
5 -32 12 -70 16 -38 3 -70 11 -70 15 0 5 -13 9 -28 9 -15 0 -32 4 -38 9 -5 6
-45 13 -89 17 -44 4 -82 11 -85 15 -3 5 -43 11 -88 15 -45 4 -82 10 -82 15 0
4 -43 10 -95 14 -52 4 -95 11 -95 16 0 5 -29 9 -65 9 -36 0 -65 4 -65 9 0 5
-55 12 -122 16 -68 4 -125 11 -128 15 -3 5 -89 12 -193 16 -103 4 -187 11
-187 15 0 5 -67 9 -149 9 -89 0 -152 4 -156 10 -4 7 -1877 10 -5585 10 -3708
0 -5581 -3 -5585 -10z m9943 -7396 c4 -6 37 -15 75 -18 37 -4 67 -12 67 -17 0
-5 13 -9 29 -9 17 0 32 -4 36 -9 3 -6 26 -13 50 -17 25 -3 45 -10 45 -15 0 -4
17 -11 38 -15 20 -4 39 -10 42 -14 7 -10 135 -70 148 -70 7 0 12 -4 12 -9 0
-5 8 -12 18 -15 32 -13 62 -31 62 -38 0 -4 20 -17 44 -28 24 -11 46 -23 48
-27 4 -11 85 -73 94 -73 4 0 21 -16 40 -35 18 -19 37 -35 43 -35 12 0 231
-219 231 -231 0 -5 15 -24 33 -42 18 -17 36 -40 40 -49 3 -10 11 -18 16 -18 5
0 13 -10 17 -22 7 -23 15 -35 52 -74 12 -14 22 -32 22 -40 0 -8 6 -17 14 -20
8 -3 18 -19 21 -35 4 -16 11 -29 16 -29 5 0 9 -7 9 -16 0 -15 29 -74 41 -84 4
-3 9 -15 13 -27 4 -13 12 -23 17 -23 5 0 9 -8 9 -17 0 -10 7 -31 15 -47 8 -15
15 -35 15 -42 0 -8 4 -14 9 -14 5 0 11 -18 15 -40 3 -22 10 -40 15 -40 4 0 11
-23 14 -52 4 -28 11 -54 16 -57 5 -3 12 -36 16 -74 4 -37 11 -70 16 -73 5 -3
9 -25 9 -49 0 -26 5 -45 13 -47 9 -4 12 -67 12 -271 0 -199 -3 -269 -12 -278
-7 -7 -13 -32 -13 -55 0 -24 -4 -45 -9 -48 -4 -3 -11 -33 -15 -66 -4 -33 -11
-60 -16 -60 -4 0 -11 -27 -15 -60 -4 -33 -11 -60 -16 -60 -5 0 -12 -18 -15
-40 -4 -22 -9 -40 -13 -40 -7 0 -27 -45 -37 -82 -3 -16 -10 -28 -15 -28 -4 0
-11 -16 -15 -35 -3 -19 -9 -35 -13 -35 -4 0 -15 -20 -26 -45 -11 -25 -23 -45
-27 -45 -5 0 -8 -6 -8 -14 0 -8 -6 -21 -14 -28 -7 -8 -17 -24 -20 -36 -4 -12
-12 -22 -17 -22 -5 0 -9 -7 -9 -15 0 -8 -4 -15 -9 -15 -5 0 -12 -8 -15 -17
-11 -32 -32 -62 -59 -87 -15 -14 -27 -30 -27 -36 0 -5 -18 -27 -40 -49 -22
-21 -40 -42 -40 -47 0 -11 -166 -174 -178 -174 -5 0 -25 -18 -45 -40 -19 -22
-39 -40 -44 -40 -11 0 -44 -24 -86 -62 -16 -16 -36 -28 -43 -28 -8 0 -14 -3
-14 -8 0 -4 -17 -16 -37 -27 -21 -11 -44 -26 -51 -32 -7 -7 -20 -13 -28 -13
-8 0 -14 -4 -14 -9 0 -5 -13 -12 -30 -16 -16 -4 -30 -10 -30 -15 0 -5 -13 -11
-30 -15 -16 -4 -30 -10 -30 -13 0 -9 -75 -42 -95 -42 -8 0 -15 -4 -15 -9 0 -5
-18 -12 -40 -16 -22 -4 -40 -11 -40 -16 0 -5 -11 -9 -25 -9 -14 0 -25 -4 -25
-9 0 -5 -28 -12 -62 -16 -35 -4 -66 -12 -70 -19 -5 -8 -900 -12 -3433 -14
l-3425 -2 0 1990 0 1990 3395 -2 c2488 -2 3398 -6 3403 -14z m3560 -11351 c2
-7 17 -13 32 -13 16 0 32 -4 35 -10 3 -5 28 -12 55 -16 28 -4 50 -10 50 -15 0
-5 18 -12 40 -15 22 -4 40 -9 40 -13 0 -7 45 -27 83 -37 15 -3 27 -10 27 -15
0 -5 6 -9 13 -9 6 -1 30 -9 52 -20 22 -11 45 -19 50 -20 6 0 16 -9 22 -19 7
-11 26 -22 43 -26 16 -4 30 -11 30 -16 0 -5 8 -13 18 -16 17 -6 63 -40 93 -68
9 -8 20 -15 25 -15 5 0 21 -11 36 -25 15 -14 30 -25 33 -25 3 0 35 -29 70 -65
36 -36 70 -65 75 -65 6 0 10 -5 10 -10 0 -6 32 -42 70 -79 39 -38 70 -73 70
-79 0 -5 16 -24 35 -41 19 -17 35 -36 35 -43 0 -8 9 -21 20 -31 11 -9 20 -24
20 -32 0 -8 4 -15 9 -15 5 0 12 -8 15 -17 12 -32 31 -63 38 -63 3 0 21 -30 39
-67 18 -38 36 -70 40 -73 4 -3 11 -18 14 -33 4 -15 11 -27 16 -27 5 0 9 -6 9
-12 0 -7 6 -25 14 -40 8 -15 17 -40 21 -57 4 -17 11 -33 16 -36 5 -4 9 -15 9
-26 0 -10 4 -19 9 -19 5 0 12 -22 16 -50 4 -27 11 -50 15 -50 4 0 11 -27 15
-60 4 -33 10 -60 15 -60 4 0 11 -40 14 -90 4 -49 12 -92 17 -95 5 -4 9 -46 9
-96 0 -53 4 -89 10 -89 6 0 10 -25 10 -55 0 -30 -4 -55 -10 -55 -6 0 -10 -38
-10 -94 0 -52 -4 -97 -9 -100 -5 -3 -12 -46 -16 -96 -4 -49 -11 -90 -15 -90
-5 0 -12 -25 -15 -55 -4 -30 -11 -55 -15 -55 -4 0 -11 -25 -15 -55 -3 -30 -10
-55 -13 -55 -8 0 -28 -44 -38 -82 -3 -16 -10 -28 -14 -28 -4 0 -10 -18 -14
-39 -3 -22 -9 -41 -13 -43 -12 -5 -43 -64 -43 -82 0 -9 -4 -16 -9 -16 -5 0
-12 -13 -16 -29 -3 -16 -13 -32 -21 -35 -8 -3 -14 -12 -14 -20 0 -8 -10 -26
-22 -40 -37 -39 -45 -51 -52 -74 -4 -12 -12 -22 -17 -22 -5 0 -9 -5 -9 -11 0
-7 -13 -25 -30 -41 -16 -15 -30 -33 -30 -38 0 -6 -22 -32 -50 -59 -27 -27 -50
-53 -50 -58 0 -15 -111 -123 -128 -123 -4 0 -27 -20 -50 -45 -23 -25 -48 -45
-55 -45 -7 0 -21 -11 -31 -25 -10 -14 -23 -25 -29 -25 -5 0 -20 -11 -33 -25
-13 -14 -30 -25 -39 -25 -9 0 -18 -7 -21 -15 -4 -8 -12 -15 -20 -15 -8 0 -14
-4 -14 -10 0 -5 -11 -12 -25 -16 -14 -3 -25 -10 -25 -14 0 -5 -13 -11 -30 -15
-16 -4 -30 -11 -30 -16 0 -5 -9 -9 -19 -9 -10 0 -21 -7 -25 -15 -3 -8 -12 -15
-21 -15 -8 0 -15 -4 -15 -9 0 -5 -18 -12 -40 -16 -22 -4 -40 -11 -40 -16 0 -5
-18 -12 -40 -15 -22 -4 -40 -10 -40 -15 0 -5 -7 -9 -15 -9 -8 0 -15 -4 -15 -9
0 -4 -23 -11 -52 -14 -28 -4 -54 -11 -57 -16 -3 -5 -35 -12 -71 -16 -36 -4
-71 -12 -79 -19 -10 -8 -1328 -12 -5153 -14 l-5138 -2 0 1974 0 1975 4133 6
c2272 3 4332 9 4577 13 711 13 1642 10 1648 -5z"/>
</g>
</svg>
